<?xml version="1.0" encoding="utf-8"?>
<!-- Generator: Adobe Illustrator 26.2.1, SVG Export Plug-In . SVG Version: 6.00 Build 0)  -->
<svg version="1.1" id="Layer_1" xmlns="http://www.w3.org/2000/svg" xmlns:xlink="http://www.w3.org/1999/xlink" x="0px" y="0px"
	 viewBox="0 0 270 100" style="enable-background:new 0 0 270 100;" xml:space="preserve">
<style type="text/css">
	.st0{opacity:0.75;fill:#468477;}
	.st1{opacity:0.75;fill:#020202;}
	.st2{opacity:0.7;fill:#B1EAE3;}
</style>
<g>
	<g>
		<polygon class="st0" points="3.9,65.7 68.3,65.7 68.3,1.2 		"/>
		<polygon class="st1" points="17.1,82.1 81.5,82.1 81.5,17.7 		"/>
		<polygon class="st2" points="30.3,98.5 94.7,98.5 94.7,34.1 		"/>
	</g>
	<g>
		<path d="M104.3,53.2v-11c0-0.3-0.2-0.5-0.5-0.6c-0.3-0.1-0.8-0.1-1.3-0.1h-0.3v-1.1h6.1v1.1H108c-0.5,0-0.9,0-1.3,0.1
			c-0.3,0.1-0.5,0.3-0.5,0.6v11c0,0.3,0.2,0.5,0.5,0.6c0.3,0.1,0.8,0.1,1.3,0.1h0.3v1.1h-6.1v-1.1h0.3c0.5,0,0.9,0,1.3-0.1
			C104.1,53.7,104.3,53.5,104.3,53.2z"/>
		<path d="M110.5,55.1v-1.1h0.2c0.3,0,0.7,0,0.9-0.1c0.3,0,0.5-0.1,0.6-0.2s0.2-0.3,0.2-0.5v-11c0-0.2-0.1-0.4-0.2-0.5
			c-0.2-0.1-0.4-0.2-0.6-0.2c-0.3,0-0.6-0.1-0.9-0.1h-0.2v-1.1h4.7l7.3,12.8l-0.2,0.1V41.7c0-0.1-0.1-0.1-0.3-0.1
			c-0.2,0-0.4-0.1-0.7-0.1c-0.3,0-0.6,0-0.8,0h-0.3v-1.1h5.5v1.1h-0.2c-0.3,0-0.6,0-0.9,0.1c-0.3,0.1-0.5,0.1-0.6,0.2
			c-0.2,0.1-0.2,0.3-0.2,0.5v12.8h-2.1l-7.9-13.9l0.3-0.1v12.6c0,0,0.1,0.1,0.3,0.1c0.2,0,0.4,0.1,0.7,0.1s0.6,0,0.8,0h0.3v1.1
			H110.5z"/>
		<path d="M127.6,55.1v-1.1h0.2c0.3,0,0.7,0,0.9-0.1c0.3,0,0.5-0.1,0.6-0.2c0.2-0.1,0.2-0.3,0.2-0.5v-11c0-0.2-0.1-0.4-0.2-0.5
			c-0.2-0.1-0.4-0.2-0.6-0.2c-0.3,0-0.6-0.1-0.9-0.1h-0.2v-1.1h4.7l7.3,12.8l-0.2,0.1V41.7c0-0.1-0.1-0.1-0.3-0.1
			c-0.2,0-0.4-0.1-0.7-0.1c-0.3,0-0.6,0-0.8,0h-0.3v-1.1h5.5v1.1h-0.2c-0.3,0-0.6,0-0.9,0.1c-0.3,0.1-0.5,0.1-0.6,0.2
			c-0.2,0.1-0.2,0.3-0.2,0.5v12.8h-2.1l-7.9-13.9l0.3-0.1v12.6c0,0,0.1,0.1,0.3,0.1c0.2,0,0.4,0.1,0.7,0.1s0.6,0,0.8,0h0.3v1.1
			H127.6z"/>
		<path d="M152.1,55.4c-1.1,0-2-0.2-2.9-0.5c-0.9-0.4-1.7-0.9-2.3-1.5c-0.7-0.7-1.2-1.5-1.5-2.4c-0.4-1-0.5-2-0.5-3.2
			c0-1.2,0.2-2.3,0.5-3.2c0.4-1,0.9-1.8,1.5-2.4c0.7-0.7,1.4-1.2,2.3-1.5c0.9-0.4,1.9-0.5,2.9-0.5c1.1,0,2,0.2,2.9,0.5
			c0.9,0.4,1.7,0.9,2.3,1.5c0.7,0.7,1.2,1.5,1.5,2.4c0.4,1,0.5,2,0.5,3.2c0,1.2-0.2,2.3-0.5,3.2c-0.4,1-0.9,1.8-1.5,2.4
			c-0.7,0.7-1.4,1.2-2.3,1.5C154.1,55.2,153.1,55.4,152.1,55.4z M152.1,54.1c0.8,0,1.5-0.1,2.2-0.4c0.6-0.3,1.2-0.7,1.7-1.2
			c0.5-0.5,0.8-1.2,1-2c0.2-0.8,0.4-1.7,0.4-2.8c0-1.1-0.1-2-0.4-2.8c-0.2-0.8-0.6-1.5-1-2s-1-1-1.7-1.2c-0.6-0.3-1.4-0.4-2.2-0.4
			c-0.8,0-1.5,0.1-2.2,0.4c-0.7,0.3-1.2,0.7-1.7,1.2s-0.8,1.2-1,2c-0.2,0.8-0.4,1.7-0.4,2.8c0,1,0.1,2,0.4,2.8c0.2,0.8,0.6,1.5,1,2
			c0.5,0.5,1,1,1.7,1.2C150.5,54,151.3,54.1,152.1,54.1z"/>
		<path d="M168.2,54.4l-0.3-0.5l4.1-12c0-0.1-0.1-0.2-0.2-0.2c-0.2-0.1-0.4-0.1-0.7-0.1c-0.3,0-0.6-0.1-0.9-0.1h-0.3v-1.1h5v1.1
			h-0.1c-0.4,0-0.7,0.1-1,0.2c-0.2,0.1-0.5,0.4-0.6,0.9l-4.4,12.6h-2.2l-4.5-12.8c-0.1-0.4-0.3-0.7-0.6-0.8c-0.3-0.1-0.6-0.2-1-0.2
			h-0.1v-1.1h5.5v1.1h-0.3c-0.3,0-0.6,0-0.9,0c-0.3,0-0.5,0-0.7,0.1s-0.2,0.1-0.2,0.1L168.2,54.4z"/>
		<path d="M181.1,41l0.3,0.4l-4,12.1c0,0.1,0.1,0.1,0.2,0.2c0.2,0.1,0.4,0.1,0.7,0.2c0.3,0,0.6,0.1,0.9,0.1h0.3v1.1h-5v-1.1h0.1
			c0.4,0,0.7-0.1,1-0.2c0.3-0.1,0.5-0.4,0.6-0.9l4.2-12.6h2.2L187,53c0.2,0.4,0.4,0.7,0.6,0.8c0.3,0.1,0.6,0.2,1,0.2h0.1v1.1h-5.5
			v-1.1h0.3c0.3,0,0.6,0,0.9,0c0.3,0,0.5,0,0.7-0.1c0.2,0,0.3-0.1,0.3-0.1L181.1,41z M178.4,48.9h5.9l0.2,1.2h-6.4L178.4,48.9z"/>
		<path d="M194.5,53.2V41.5h-1.2c-0.6,0-1.1,0-1.5,0.1c-0.4,0.1-0.7,0.2-0.9,0.3c-0.2,0.2-0.3,0.4-0.3,0.6l-0.2,2.3h-1.2v-4.6h12.7
			v4.6h-1.2l-0.2-2.3c0-0.2-0.1-0.5-0.3-0.6c-0.2-0.2-0.5-0.3-0.9-0.3c-0.4-0.1-0.9-0.1-1.5-0.1h-1.2v11.6c0,0.3,0.2,0.5,0.5,0.6
			c0.3,0.1,0.8,0.1,1.3,0.1h0.4v1.1h-6.3v-1.1h0.4c0.5,0,0.9,0,1.3-0.1C194.3,53.7,194.5,53.5,194.5,53.2z"/>
		<path d="M206,53.2v-11c0-0.3-0.2-0.5-0.5-0.6c-0.3-0.1-0.8-0.1-1.3-0.1h-0.3v-1.1h6.1v1.1h-0.3c-0.5,0-0.9,0-1.3,0.1
			c-0.3,0.1-0.5,0.3-0.5,0.6v11c0,0.3,0.2,0.5,0.5,0.6c0.3,0.1,0.8,0.1,1.3,0.1h0.3v1.1h-6.1v-1.1h0.3c0.5,0,0.9,0,1.3-0.1
			C205.8,53.7,206,53.5,206,53.2z"/>
		<path d="M219.5,55.4c-1.1,0-2-0.2-2.9-0.5c-0.9-0.4-1.7-0.9-2.3-1.5c-0.7-0.7-1.2-1.5-1.5-2.4c-0.4-1-0.5-2-0.5-3.2
			c0-1.2,0.2-2.3,0.5-3.2c0.4-1,0.9-1.8,1.5-2.4c0.7-0.7,1.4-1.2,2.3-1.5c0.9-0.4,1.9-0.5,2.9-0.5c1.1,0,2,0.2,2.9,0.5
			c0.9,0.4,1.7,0.9,2.3,1.5c0.7,0.7,1.2,1.5,1.5,2.4c0.4,1,0.5,2,0.5,3.2c0,1.2-0.2,2.3-0.5,3.2c-0.4,1-0.9,1.8-1.5,2.4
			c-0.7,0.7-1.4,1.2-2.3,1.5C221.6,55.2,220.6,55.4,219.5,55.4z M219.5,54.1c0.8,0,1.5-0.1,2.2-0.4c0.6-0.3,1.2-0.7,1.7-1.2
			c0.5-0.5,0.8-1.2,1-2c0.2-0.8,0.4-1.7,0.4-2.8c0-1.1-0.1-2-0.4-2.8c-0.2-0.8-0.6-1.5-1-2s-1-1-1.7-1.2c-0.6-0.3-1.4-0.4-2.2-0.4
			c-0.8,0-1.5,0.1-2.2,0.4c-0.7,0.3-1.2,0.7-1.7,1.2s-0.8,1.2-1,2c-0.2,0.8-0.4,1.7-0.4,2.8c0,1,0.1,2,0.4,2.8c0.2,0.8,0.6,1.5,1,2
			c0.5,0.5,1,1,1.7,1.2C218,54,218.7,54.1,219.5,54.1z"/>
		<path d="M229.1,55.1v-1.1h0.2c0.3,0,0.7,0,0.9-0.1c0.3,0,0.5-0.1,0.6-0.2s0.2-0.3,0.2-0.5v-11c0-0.2-0.1-0.4-0.2-0.5
			c-0.2-0.1-0.4-0.2-0.6-0.2c-0.3,0-0.6-0.1-0.9-0.1h-0.2v-1.1h4.7l7.3,12.8l-0.2,0.1V41.7c0-0.1-0.1-0.1-0.3-0.1
			c-0.2,0-0.4-0.1-0.7-0.1c-0.3,0-0.6,0-0.8,0h-0.3v-1.1h5.5v1.1h-0.2c-0.3,0-0.6,0-0.9,0.1c-0.3,0.1-0.5,0.1-0.6,0.2
			c-0.2,0.1-0.2,0.3-0.2,0.5v12.8h-2.1l-7.9-13.9l0.3-0.1v12.6c0,0,0.1,0.1,0.3,0.1c0.2,0,0.4,0.1,0.7,0.1s0.6,0,0.8,0h0.3v1.1
			H229.1z"/>
	</g>
	<g>
		<path d="M102.2,75.9v-1.1h0.2c0.3,0,0.7,0,0.9-0.1c0.3,0,0.5-0.1,0.6-0.2c0.2-0.1,0.2-0.3,0.2-0.5V63c0-0.2-0.1-0.4-0.2-0.5
			c-0.2-0.1-0.4-0.2-0.6-0.2c-0.3,0-0.6-0.1-0.9-0.1h-0.2v-1.1h5.1l4.1,12.8l-0.3,0l4.2-12.9h5v1.1h-0.2c-0.3,0-0.6,0-0.9,0.1
			c-0.3,0-0.5,0.1-0.6,0.2c-0.2,0.1-0.2,0.3-0.2,0.5v11c0,0.2,0.1,0.3,0.2,0.5c0.2,0.1,0.4,0.2,0.6,0.2c0.3,0,0.6,0.1,0.9,0.1h0.2
			v1.1h-5.7v-1.1h0.2c0.2,0,0.5,0,0.7,0c0.2,0,0.5,0,0.6-0.1c0.2,0,0.3-0.1,0.3-0.1v-13l0.2-0.1l-5,14.5h-1.3l-5-14.5l0.2,0v13.1
			c0,0,0.1,0.1,0.3,0.1c0.2,0,0.4,0,0.7,0.1c0.3,0,0.5,0,0.7,0h0.1v1.1H102.2z"/>
		<path d="M128.3,61.8l0.3,0.4l-4,12.1c0,0.1,0.1,0.1,0.2,0.2c0.2,0.1,0.4,0.1,0.7,0.2c0.3,0,0.6,0.1,0.9,0.1h0.3v1.1h-5v-1.1h0.1
			c0.4,0,0.7-0.1,1-0.2c0.3-0.1,0.5-0.4,0.6-0.9l4.2-12.6h2.2l4.4,12.8c0.2,0.4,0.4,0.7,0.6,0.8c0.3,0.1,0.6,0.2,1,0.2h0.1v1.1h-5.5
			v-1.1h0.3c0.3,0,0.6,0,0.9,0c0.3,0,0.5,0,0.7-0.1c0.2,0,0.3-0.1,0.3-0.1L128.3,61.8z M125.6,69.7h5.9l0.2,1.2h-6.4L125.6,69.7z"/>
		<path d="M137.4,75.9v-1.1h0.2c0.3,0,0.7,0,0.9-0.1c0.3,0,0.5-0.1,0.6-0.2c0.2-0.1,0.2-0.3,0.2-0.5V63c0-0.2-0.1-0.4-0.2-0.5
			c-0.2-0.1-0.4-0.2-0.6-0.2c-0.3,0-0.6-0.1-0.9-0.1h-0.2v-1.1h4.7l7.3,12.8l-0.2,0.1V62.5c0-0.1-0.1-0.1-0.3-0.1
			c-0.2,0-0.4-0.1-0.7-0.1c-0.3,0-0.6,0-0.8,0H147v-1.1h5.5v1.1h-0.2c-0.3,0-0.6,0-0.9,0.1c-0.3,0.1-0.5,0.1-0.6,0.2
			c-0.2,0.1-0.2,0.3-0.2,0.5v12.8h-2.1L140.5,62l0.3-0.1v12.6c0,0,0.1,0.1,0.3,0.1c0.2,0,0.4,0.1,0.7,0.1c0.3,0,0.6,0,0.8,0h0.3v1.1
			H137.4z"/>
		<path d="M160.1,61.8l0.3,0.4l-4,12.1c0,0.1,0.1,0.1,0.2,0.2c0.2,0.1,0.4,0.1,0.7,0.2c0.3,0,0.6,0.1,0.9,0.1h0.3v1.1h-5v-1.1h0.1
			c0.4,0,0.7-0.1,1-0.2c0.3-0.1,0.5-0.4,0.6-0.9l4.2-12.6h2.2l4.4,12.8c0.2,0.4,0.4,0.7,0.6,0.8c0.3,0.1,0.6,0.2,1,0.2h0.1v1.1h-5.5
			v-1.1h0.3c0.3,0,0.6,0,0.9,0c0.3,0,0.5,0,0.7-0.1c0.2,0,0.3-0.1,0.3-0.1L160.1,61.8z M157.4,69.7h5.9l0.2,1.2h-6.4L157.4,69.7z"/>
		<path d="M182.1,70.6v3.1c-0.2,0.3-0.5,0.5-0.9,0.8c-0.4,0.3-0.8,0.6-1.3,0.8c-0.5,0.3-1.1,0.5-1.7,0.6c-0.6,0.2-1.3,0.2-2,0.2
			c-1.1,0-2.1-0.2-3-0.5c-0.9-0.3-1.7-0.9-2.3-1.5c-0.7-0.7-1.2-1.5-1.5-2.4c-0.3-1-0.5-2-0.5-3.3s0.2-2.3,0.6-3.3
			c0.4-1,0.9-1.8,1.5-2.4c0.7-0.7,1.4-1.2,2.3-1.5c0.9-0.4,1.8-0.5,2.8-0.5c0.9,0,1.7,0.2,2.5,0.5c0.7,0.3,1.3,0.8,1.8,1.3
			c0.5,0.6,0.8,1.3,0.9,2.1l-0.6-0.5l0.3-3.1h1.4v4.7h-1.5c-0.2-0.7-0.6-1.4-1-1.9c-0.4-0.5-1-1-1.6-1.3c-0.6-0.3-1.3-0.5-2.2-0.5
			c-0.8,0-1.5,0.1-2.1,0.4c-0.6,0.3-1.2,0.7-1.6,1.2c-0.5,0.5-0.8,1.2-1,2c-0.2,0.8-0.4,1.7-0.4,2.8s0.1,2,0.4,2.8
			c0.2,0.8,0.6,1.5,1,2c0.5,0.5,1,0.9,1.7,1.2c0.7,0.3,1.4,0.4,2.3,0.4c0.8,0,1.5-0.1,2-0.3c0.5-0.2,1-0.4,1.3-0.6
			c0.3-0.2,0.6-0.4,0.7-0.6v-2.9c0-0.3-0.2-0.5-0.6-0.6s-0.8-0.2-1.3-0.2h-0.4v-1.1h6v1.1h-0.3c-0.5,0-0.9,0.1-1.1,0.2
			C182.3,70.1,182.1,70.3,182.1,70.6z"/>
		<path d="M197.2,71.3v4.6h-11.6v-1.1h0.2c0.5,0,0.9,0,1.3-0.1c0.3-0.1,0.5-0.3,0.5-0.6V63c0-0.3-0.2-0.5-0.5-0.6
			c-0.3-0.1-0.8-0.1-1.3-0.1h-0.2v-1.1h11.1v4.1h-1.2l-0.2-1.9c0-0.2-0.1-0.4-0.3-0.6c-0.2-0.1-0.5-0.2-0.8-0.3
			c-0.4,0-0.9-0.1-1.5-0.1h-3.1v12.2h3.6c0.4,0,0.8,0,1.2,0c0.3,0,0.6-0.1,0.8-0.1c0.2-0.1,0.4-0.2,0.5-0.3c0.1-0.1,0.2-0.3,0.2-0.5
			l0.2-2.4H197.2z M189,67.7c0.6,0,1.2-0.1,1.9-0.1c0.6,0,1.2,0,1.9-0.1c0.6,0,1.2-0.1,1.9-0.1v1.6c-0.6,0-1.2-0.1-1.9-0.1
			c-0.6,0-1.2-0.1-1.9-0.1c-0.6,0-1.2-0.1-1.9-0.1V67.7z"/>
		<path d="M199.7,75.9v-1.1h0.2c0.3,0,0.7,0,0.9-0.1c0.3,0,0.5-0.1,0.6-0.2s0.2-0.3,0.2-0.5V63c0-0.2-0.1-0.4-0.2-0.5
			c-0.2-0.1-0.4-0.2-0.6-0.2c-0.3,0-0.6-0.1-0.9-0.1h-0.2v-1.1h5.1L209,74l-0.3,0l4.2-12.9h5v1.1h-0.2c-0.3,0-0.6,0-0.9,0.1
			c-0.3,0-0.5,0.1-0.6,0.2c-0.2,0.1-0.2,0.3-0.2,0.5v11c0,0.2,0.1,0.3,0.2,0.5c0.2,0.1,0.4,0.2,0.6,0.2c0.3,0,0.6,0.1,0.9,0.1h0.2
			v1.1h-5.7v-1.1h0.2c0.2,0,0.5,0,0.7,0c0.2,0,0.5,0,0.6-0.1c0.2,0,0.3-0.1,0.3-0.1v-13l0.2-0.1l-5,14.5h-1.3l-5-14.5l0.2,0v13.1
			c0,0,0.1,0.1,0.3,0.1c0.2,0,0.4,0,0.7,0.1c0.3,0,0.5,0,0.7,0h0.1v1.1H199.7z"/>
		<path d="M231.7,71.3v4.6h-11.6v-1.1h0.2c0.5,0,0.9,0,1.3-0.1c0.3-0.1,0.5-0.3,0.5-0.6V63c0-0.3-0.2-0.5-0.5-0.6
			c-0.3-0.1-0.8-0.1-1.3-0.1h-0.2v-1.1h11.1v4.1h-1.2l-0.2-1.9c0-0.2-0.1-0.4-0.3-0.6c-0.2-0.1-0.5-0.2-0.8-0.3
			c-0.4,0-0.9-0.1-1.5-0.1H224v12.2h3.6c0.4,0,0.8,0,1.2,0c0.3,0,0.6-0.1,0.8-0.1c0.2-0.1,0.4-0.2,0.5-0.3c0.1-0.1,0.2-0.3,0.2-0.5
			l0.2-2.4H231.7z M223.5,67.7c0.6,0,1.2-0.1,1.9-0.1c0.6,0,1.2,0,1.9-0.1c0.6,0,1.2-0.1,1.9-0.1v1.6c-0.6,0-1.2-0.1-1.9-0.1
			c-0.6,0-1.2-0.1-1.9-0.1c-0.6,0-1.2-0.1-1.9-0.1V67.7z"/>
		<path d="M234.2,75.9v-1.1h0.2c0.3,0,0.7,0,0.9-0.1c0.3,0,0.5-0.1,0.6-0.2c0.2-0.1,0.2-0.3,0.2-0.5V63c0-0.2-0.1-0.4-0.2-0.5
			c-0.2-0.1-0.4-0.2-0.6-0.2c-0.3,0-0.6-0.1-0.9-0.1h-0.2v-1.1h4.7l7.3,12.8l-0.2,0.1V62.5c0-0.1-0.1-0.1-0.3-0.1
			c-0.2,0-0.4-0.1-0.7-0.1c-0.3,0-0.6,0-0.8,0h-0.3v-1.1h5.5v1.1h-0.2c-0.3,0-0.6,0-0.9,0.1c-0.3,0.1-0.5,0.1-0.6,0.2
			c-0.2,0.1-0.2,0.3-0.2,0.5v12.8h-2.1L237.3,62l0.3-0.1v12.6c0,0,0.1,0.1,0.3,0.1c0.2,0,0.4,0.1,0.7,0.1c0.3,0,0.6,0,0.8,0h0.3v1.1
			H234.2z"/>
		<path d="M256.6,74V62.4h-1.2c-0.6,0-1.1,0-1.5,0.1c-0.4,0.1-0.7,0.2-0.9,0.3c-0.2,0.2-0.3,0.4-0.3,0.6l-0.2,2.3h-1.2v-4.6h12.7
			v4.6h-1.2l-0.2-2.3c0-0.2-0.1-0.5-0.3-0.6c-0.2-0.2-0.5-0.3-0.9-0.3c-0.4-0.1-0.9-0.1-1.5-0.1h-1.2V74c0,0.3,0.2,0.5,0.5,0.6
			c0.3,0.1,0.8,0.1,1.3,0.1h0.4v1.1h-6.3v-1.1h0.4c0.5,0,0.9,0,1.3-0.1C256.4,74.5,256.6,74.3,256.6,74z"/>
	</g>
	<g>
		<path d="M105.5,83.6l0.2,0.3l-2.7,8.2c0,0,0.1,0.1,0.2,0.1c0.1,0,0.3,0.1,0.5,0.1c0.2,0,0.4,0,0.6,0h0.2v0.8H101v-0.8h0.1
			c0.3,0,0.5,0,0.7-0.1c0.2-0.1,0.3-0.3,0.4-0.6l2.9-8.6h1.5l3,8.7c0.1,0.3,0.2,0.5,0.4,0.5c0.2,0.1,0.4,0.1,0.7,0.1h0.1v0.8H107
			v-0.8h0.2c0.2,0,0.4,0,0.6,0c0.2,0,0.3,0,0.5,0c0.1,0,0.2,0,0.2-0.1L105.5,83.6z M103.7,89h4.1l0.1,0.8h-4.4L103.7,89z"/>
		<path d="M118.2,92.5c0.4,0,0.8-0.1,1.1-0.2c0.3-0.1,0.6-0.3,0.8-0.5c0.2-0.2,0.4-0.5,0.6-0.7l0.7,0.6c-0.2,0.3-0.4,0.6-0.7,0.9
			c-0.3,0.3-0.6,0.5-1,0.6c-0.4,0.1-0.8,0.2-1.3,0.2c-0.8,0-1.5-0.2-2.1-0.5c-0.6-0.3-1-0.8-1.3-1.4c-0.3-0.6-0.5-1.3-0.5-2.1
			c0-0.8,0.2-1.5,0.5-2.1c0.3-0.6,0.8-1,1.4-1.4c0.6-0.3,1.3-0.5,2.1-0.5c0.5,0,0.9,0,1.3,0.1c0.4,0.1,0.7,0.2,0.9,0.3
			c0.3,0.1,0.4,0.2,0.6,0.3v2.2h-1.3v-1.8c0.1,0,0.2,0,0.3,0.1c0.1,0,0.2,0.1,0.2,0.1s0.1,0.1,0.1,0.2c0,0.1,0,0.1,0,0.2
			c-0.2-0.2-0.5-0.4-0.9-0.5c-0.4-0.1-0.8-0.2-1.3-0.2c-0.6,0-1.1,0.1-1.5,0.4c-0.4,0.2-0.7,0.6-0.9,1.1c-0.2,0.5-0.3,1-0.3,1.7
			c0,0.5,0.1,0.9,0.2,1.3c0.1,0.4,0.3,0.7,0.5,1c0.2,0.3,0.5,0.5,0.8,0.6C117.4,92.4,117.8,92.5,118.2,92.5z"/>
		<path d="M130.2,88.5v0.8c-0.6,0.1-1.1,0.2-1.5,0.3s-0.8,0.2-1,0.3c-0.3,0.1-0.5,0.2-0.7,0.4c-0.2,0.1-0.3,0.3-0.3,0.5
			c-0.1,0.2-0.1,0.4-0.1,0.6c0,0.3,0.1,0.5,0.2,0.7c0.1,0.2,0.3,0.3,0.5,0.4c0.2,0.1,0.4,0.1,0.7,0.1c0.3,0,0.6-0.1,0.8-0.2
			c0.3-0.1,0.5-0.4,0.7-0.6c0.2-0.3,0.5-0.6,0.7-1.1l0,0.8c-0.2,0.4-0.4,0.7-0.7,1c-0.3,0.3-0.5,0.5-0.9,0.7
			c-0.3,0.2-0.7,0.2-1.1,0.2c-0.5,0-0.9-0.1-1.2-0.2c-0.3-0.2-0.6-0.4-0.8-0.7c-0.2-0.3-0.3-0.7-0.3-1.1c0-0.4,0.1-0.7,0.3-1
			c0.2-0.3,0.5-0.5,0.9-0.8c0.4-0.2,0.9-0.4,1.5-0.6C128.6,88.8,129.4,88.7,130.2,88.5z M130.2,93.2l-0.2-1.6l-0.1-0.1v-3.7
			c0-0.4,0-0.6-0.1-0.9c-0.1-0.2-0.3-0.4-0.5-0.5c-0.2-0.1-0.5-0.1-0.9-0.1c-0.6,0-1,0.1-1.4,0.2c-0.4,0.2-0.6,0.3-0.8,0.5
			c0-0.1,0-0.2,0.1-0.2c0-0.1,0.1-0.2,0.2-0.2c0.1-0.1,0.1-0.1,0.2-0.2c0.1,0,0.2-0.1,0.3-0.1v1.6h-1.2v-1.7
			c0.1-0.1,0.3-0.2,0.6-0.3c0.2-0.1,0.6-0.2,0.9-0.3c0.4-0.1,0.8-0.1,1.2-0.1c0.4,0,0.7,0,1.1,0.1c0.3,0.1,0.6,0.2,0.9,0.4
			c0.2,0.2,0.4,0.4,0.6,0.7c0.1,0.3,0.2,0.6,0.2,1v4.3c0,0.1,0,0.2,0.1,0.3c0.1,0.1,0.2,0.1,0.4,0.2c0.2,0,0.4,0.1,0.6,0.1l0.1,0
			v0.7H130.2z"/>
		<path d="M139.5,85.4c0.4,0,0.8,0.1,1.1,0.2c0.3,0.1,0.6,0.3,0.9,0.6c0.3,0.3,0.5,0.6,0.7,1l0,0.9c-0.2-0.4-0.5-0.8-0.8-1.1
			c-0.3-0.3-0.5-0.5-0.9-0.6s-0.6-0.2-1-0.2c-0.4,0-0.7,0.1-1,0.2c-0.3,0.1-0.5,0.3-0.7,0.6c-0.2,0.3-0.3,0.6-0.4,1
			c-0.1,0.4-0.1,0.8-0.1,1.3c0,0.5,0,0.9,0.1,1.3c0.1,0.4,0.2,0.7,0.4,1c0.2,0.3,0.4,0.5,0.7,0.6c0.3,0.1,0.6,0.2,1,0.2
			c0.4,0,0.8-0.1,1.1-0.2c0.3-0.1,0.6-0.3,0.9-0.6s0.5-0.6,0.8-1l0,0.9c-0.2,0.4-0.5,0.7-0.8,1c-0.3,0.3-0.6,0.5-0.9,0.6
			c-0.3,0.1-0.7,0.2-1.2,0.2c-0.7,0-1.3-0.2-1.8-0.5c-0.5-0.3-0.9-0.8-1.2-1.4s-0.4-1.3-0.4-2c0-0.8,0.1-1.5,0.4-2.1
			c0.3-0.6,0.7-1.1,1.2-1.4C138.1,85.6,138.8,85.4,139.5,85.4z M143.2,91.9c0,0.2,0.1,0.3,0.3,0.4c0.2,0.1,0.5,0.1,0.8,0.2l0.1,0
			v0.7h-2.3l-0.2-1.7l-0.1,0v-7.7c0-0.1,0-0.2-0.1-0.3c-0.1-0.1-0.2-0.1-0.4-0.2c-0.2,0-0.4-0.1-0.6-0.1l-0.1,0v-0.7h2.5V91.9z"/>
		<path d="M149.5,89.4c0,0.5,0.1,1,0.2,1.4c0.1,0.4,0.3,0.7,0.5,0.9c0.2,0.2,0.5,0.4,0.8,0.5c0.3,0.1,0.6,0.2,1,0.2
			c0.4,0,0.7-0.1,1-0.2c0.3-0.1,0.5-0.3,0.8-0.5c0.2-0.2,0.4-0.4,0.5-0.7l0.7,0.6c-0.2,0.3-0.4,0.6-0.7,0.9c-0.3,0.3-0.6,0.5-1,0.6
			c-0.4,0.1-0.8,0.2-1.3,0.2c-0.7,0-1.4-0.2-1.9-0.5c-0.6-0.3-1-0.7-1.4-1.3c-0.3-0.6-0.5-1.3-0.5-2.1c0-0.8,0.2-1.5,0.5-2.1
			c0.3-0.6,0.7-1.1,1.3-1.4c0.5-0.3,1.1-0.5,1.8-0.5c0.6,0,1,0.1,1.4,0.3c0.4,0.2,0.7,0.4,1,0.8c0.3,0.4,0.5,0.8,0.6,1.3
			c0.1,0.5,0.2,1.2,0.2,1.9h-5.9v-0.8h4.9l-0.4,0.3c0-0.5-0.1-1-0.1-1.4c-0.1-0.4-0.2-0.7-0.4-0.9c-0.2-0.2-0.4-0.4-0.6-0.5
			c-0.2-0.1-0.5-0.2-0.9-0.2c-0.3,0-0.6,0.1-0.9,0.2c-0.3,0.1-0.5,0.3-0.7,0.6c-0.2,0.3-0.4,0.6-0.5,1
			C149.5,88.5,149.5,88.9,149.5,89.4z"/>
		<path d="M159,93.2v-0.7h0c0.4,0,0.7-0.1,0.9-0.2c0.2-0.1,0.3-0.3,0.3-0.6V87c0-0.1,0-0.2-0.1-0.3c-0.1-0.1-0.2-0.1-0.4-0.2
			c-0.2,0-0.4-0.1-0.6-0.1l-0.1,0v-0.7h2.3l0.2,1.6l0.1,0.1v5.1c0,0,0.1,0.1,0.2,0.1c0.1,0,0.2,0,0.4,0s0.3,0,0.4,0h0.1v0.7H159z
			 M167,93.2h-3.4v-0.7h0c0.1,0,0.3,0,0.4,0c0.2,0,0.3,0,0.4,0c0.1,0,0.2,0,0.2-0.1v-4.6c0-0.3,0-0.6-0.1-0.8
			c-0.1-0.2-0.2-0.4-0.3-0.5s-0.4-0.1-0.6-0.1c-0.3,0-0.6,0.1-0.8,0.2c-0.3,0.1-0.5,0.3-0.8,0.5c-0.3,0.2-0.5,0.5-0.8,0.9l0-0.8
			c0.3-0.4,0.5-0.7,0.8-0.9c0.3-0.3,0.6-0.5,0.9-0.6c0.3-0.1,0.7-0.2,1-0.2c0.4,0,0.8,0.1,1.1,0.2c0.3,0.2,0.5,0.4,0.7,0.7
			c0.2,0.3,0.2,0.7,0.2,1.2v4.8c0,0,0.1,0.1,0.2,0.1c0.1,0,0.2,0,0.4,0c0.2,0,0.3,0,0.4,0h0V93.2z M171.7,93.2h-3.6v-0.7h0.1
			c0.1,0,0.3,0,0.4,0c0.2,0,0.3,0,0.4,0c0.1,0,0.2,0,0.2-0.1v-4.6c0-0.3,0-0.6-0.1-0.8c-0.1-0.2-0.2-0.4-0.3-0.5
			c-0.2-0.1-0.4-0.1-0.6-0.1c-0.3,0-0.6,0.1-0.8,0.2c-0.3,0.1-0.5,0.3-0.8,0.5c-0.3,0.2-0.5,0.5-0.8,0.9v-0.8
			c0.3-0.4,0.6-0.7,0.8-0.9c0.3-0.3,0.6-0.5,0.9-0.6s0.7-0.2,1-0.2c0.4,0,0.8,0.1,1.1,0.2c0.3,0.2,0.5,0.4,0.7,0.7s0.2,0.7,0.2,1.2
			v4.1c0,0.3,0.1,0.5,0.3,0.6c0.2,0.1,0.5,0.2,0.9,0.2h0.1V93.2z"/>
		<path d="M179.6,92.6l-0.2,0.5l-0.7,0.4l-2.7-6.7c-0.1-0.1-0.1-0.2-0.2-0.3c-0.1-0.1-0.2-0.1-0.4-0.1c-0.1,0-0.3,0-0.5,0h-0.1v-0.8
			h3.6v0.8h-0.1c-0.2,0-0.4,0-0.6,0c-0.2,0-0.3,0-0.5,0c-0.1,0-0.2,0-0.2,0.1L179.6,92.6z M179.8,92.9c-0.3,0.6-0.5,1.2-0.8,1.6
			c-0.3,0.5-0.5,0.8-0.8,1.1c-0.3,0.3-0.6,0.5-0.9,0.6c-0.3,0.1-0.7,0.2-1.1,0.2c-0.3,0-0.5,0-0.7-0.1c-0.2-0.1-0.3-0.1-0.5-0.2
			v-1.1c0,0,0.1,0,0.2,0.1c0.1,0,0.2,0.1,0.4,0.1c0.2,0,0.3,0.1,0.5,0.1c0.2,0,0.5,0,0.7-0.1c0.2-0.1,0.4-0.2,0.7-0.4
			c0.2-0.2,0.4-0.5,0.7-0.9s0.5-0.9,0.7-1.5l0.1-0.2l2.2-5.6c0-0.1-0.1-0.1-0.2-0.2c-0.1,0-0.3-0.1-0.4-0.1c-0.2,0-0.4,0-0.6,0h-0.1
			v-0.8h3.3v0.8h-0.1c-0.2,0-0.3,0-0.5,0c-0.1,0-0.3,0.1-0.4,0.2c-0.1,0.1-0.2,0.2-0.3,0.4L179.8,92.9z"/>
		<path d="M197.5,83.6l0.2,0.3l-2.7,8.2c0,0,0.1,0.1,0.2,0.1c0.1,0,0.3,0.1,0.5,0.1c0.2,0,0.4,0,0.6,0h0.2v0.8h-3.4v-0.8h0.1
			c0.3,0,0.5,0,0.7-0.1c0.2-0.1,0.3-0.3,0.4-0.6L197,83h1.5l3,8.7c0.1,0.3,0.2,0.5,0.4,0.5c0.2,0.1,0.4,0.1,0.7,0.1h0.1v0.8h-3.7
			v-0.8h0.2c0.2,0,0.4,0,0.6,0c0.2,0,0.3,0,0.5,0c0.1,0,0.2,0,0.2-0.1L197.5,83.6z M195.6,89h4.1l0.1,0.8h-4.4L195.6,89z"/>
		<path d="M208.8,82.4v9.3c0,0.3,0.1,0.5,0.3,0.6c0.2,0.1,0.5,0.1,0.9,0.1h0v0.7h-3.7v-0.7h0.1c0.4,0,0.7,0,0.9-0.1
			c0.2-0.1,0.3-0.3,0.3-0.6v-7.9c0-0.1,0-0.2-0.1-0.3c-0.1-0.1-0.2-0.1-0.4-0.2c-0.2,0-0.4-0.1-0.6-0.1l-0.1,0v-0.7H208.8z"/>
		<path d="M214.7,83.8c0-0.1,0-0.2-0.1-0.3c-0.1-0.1-0.2-0.1-0.4-0.2c-0.2,0-0.4-0.1-0.6-0.1l-0.1,0v-0.7h2.5v9l-0.1,0.1l-0.3,1.8
			h-0.8V83.8z M218.5,93.3c-0.4,0-0.8-0.1-1.1-0.2c-0.3-0.1-0.6-0.3-0.9-0.6c-0.3-0.3-0.5-0.6-0.8-1l0-0.9c0.2,0.4,0.5,0.7,0.8,1
			s0.6,0.5,0.9,0.6c0.3,0.1,0.6,0.2,1,0.2c0.4,0,0.7-0.1,1-0.2c0.3-0.1,0.5-0.3,0.7-0.6c0.2-0.3,0.3-0.6,0.4-1
			c0.1-0.4,0.1-0.8,0.1-1.3c0-0.5,0-0.9-0.1-1.3c-0.1-0.4-0.2-0.7-0.4-0.9c-0.2-0.3-0.4-0.5-0.7-0.6c-0.3-0.1-0.6-0.2-1-0.2
			c-0.4,0-0.8,0.1-1.1,0.2c-0.3,0.1-0.6,0.3-0.9,0.6c-0.3,0.3-0.5,0.6-0.8,1l0-0.9c0.3-0.4,0.5-0.7,0.8-1c0.3-0.3,0.6-0.5,0.9-0.6
			c0.3-0.1,0.7-0.2,1.2-0.2c0.7,0,1.3,0.2,1.8,0.5c0.5,0.3,0.9,0.8,1.1,1.4c0.3,0.6,0.4,1.3,0.4,2c0,0.8-0.1,1.5-0.4,2.1
			c-0.3,0.6-0.7,1.1-1.2,1.4C219.8,93.2,219.2,93.3,218.5,93.3z"/>
		<path d="M230.9,88.5v0.8c-0.6,0.1-1.1,0.2-1.5,0.3c-0.4,0.1-0.8,0.2-1,0.3c-0.3,0.1-0.5,0.2-0.7,0.4s-0.3,0.3-0.3,0.5
			c-0.1,0.2-0.1,0.4-0.1,0.6c0,0.3,0.1,0.5,0.2,0.7c0.1,0.2,0.3,0.3,0.5,0.4c0.2,0.1,0.4,0.1,0.7,0.1c0.3,0,0.6-0.1,0.8-0.2
			c0.3-0.1,0.5-0.4,0.7-0.6c0.2-0.3,0.5-0.6,0.7-1.1l0,0.8c-0.2,0.4-0.4,0.7-0.7,1c-0.3,0.3-0.5,0.5-0.9,0.7
			c-0.3,0.2-0.7,0.2-1.1,0.2c-0.5,0-0.9-0.1-1.2-0.2c-0.3-0.2-0.6-0.4-0.8-0.7c-0.2-0.3-0.3-0.7-0.3-1.1c0-0.4,0.1-0.7,0.3-1
			c0.2-0.3,0.5-0.5,0.9-0.8c0.4-0.2,0.9-0.4,1.5-0.6C229.3,88.8,230.1,88.7,230.9,88.5z M230.9,93.2l-0.2-1.6l-0.1-0.1v-3.7
			c0-0.4,0-0.6-0.1-0.9c-0.1-0.2-0.3-0.4-0.5-0.5c-0.2-0.1-0.5-0.1-0.9-0.1c-0.6,0-1,0.1-1.4,0.2s-0.6,0.3-0.8,0.5
			c0-0.1,0-0.2,0.1-0.2c0-0.1,0.1-0.2,0.2-0.2c0.1-0.1,0.1-0.1,0.2-0.2c0.1,0,0.2-0.1,0.3-0.1v1.6h-1.2v-1.7
			c0.1-0.1,0.3-0.2,0.6-0.3c0.2-0.1,0.6-0.2,0.9-0.3c0.4-0.1,0.8-0.1,1.2-0.1c0.4,0,0.7,0,1.1,0.1c0.3,0.1,0.6,0.2,0.9,0.4
			c0.2,0.2,0.4,0.4,0.6,0.7c0.1,0.3,0.2,0.6,0.2,1v4.3c0,0.1,0,0.2,0.1,0.3c0.1,0.1,0.2,0.1,0.4,0.2c0.2,0,0.4,0.1,0.6,0.1l0.1,0
			v0.7H230.9z"/>
		<path d="M236.7,93.2v-0.7h0c0.2,0,0.5,0,0.6-0.1c0.2,0,0.3-0.1,0.4-0.2c0.1-0.1,0.1-0.3,0.1-0.5V87c0-0.1,0-0.2-0.1-0.3
			c-0.1-0.1-0.2-0.1-0.4-0.2c-0.2,0-0.4-0.1-0.6-0.1l-0.1,0v-0.7h2.3l0.2,1.6l0.1,0.1v5.1c0,0,0.1,0.1,0.2,0.1c0.1,0,0.2,0,0.4,0
			s0.3,0,0.4,0h0.1v0.7H236.7z M245.3,93.2h-3.6v-0.7h0c0.1,0,0.3,0,0.4,0s0.3,0,0.4,0c0.1,0,0.2,0,0.2-0.1v-4.6
			c0-0.3,0-0.6-0.1-0.8c-0.1-0.2-0.2-0.3-0.4-0.4c-0.2-0.1-0.4-0.1-0.7-0.1c-0.3,0-0.6,0.1-0.9,0.2c-0.3,0.1-0.6,0.3-0.9,0.6
			c-0.3,0.2-0.6,0.6-0.8,0.9v-0.8c0.3-0.4,0.6-0.7,0.9-1c0.3-0.3,0.6-0.5,1-0.6c0.3-0.1,0.7-0.2,1.1-0.2c0.5,0,0.9,0.1,1.2,0.2
			c0.3,0.2,0.6,0.4,0.7,0.7c0.2,0.3,0.3,0.7,0.3,1.2v4.1c0,0.2,0,0.4,0.1,0.5c0.1,0.1,0.2,0.2,0.4,0.2c0.2,0,0.4,0.1,0.6,0.1h0V93.2
			z"/>
		<path d="M251.5,85.6v6.2c0,0.3,0.1,0.5,0.3,0.6c0.2,0.1,0.5,0.1,0.9,0.1h0v0.7H249v-0.7h0c0.4,0,0.7,0,0.9-0.1
			c0.2-0.1,0.3-0.3,0.3-0.6V87c0-0.2-0.1-0.3-0.3-0.4c-0.2-0.1-0.5-0.1-0.8-0.2l-0.1,0v-0.7H251.5z M250.7,84
			c-0.3,0-0.5-0.1-0.7-0.2c-0.2-0.2-0.3-0.4-0.3-0.7c0-0.3,0.1-0.5,0.3-0.7c0.2-0.2,0.4-0.2,0.7-0.2c0.3,0,0.5,0.1,0.7,0.2
			c0.2,0.2,0.3,0.4,0.3,0.7c0,0.3-0.1,0.5-0.3,0.7C251.2,83.9,251,84,250.7,84z"/>
		<path d="M261.6,88.5v0.8c-0.6,0.1-1.1,0.2-1.5,0.3c-0.4,0.1-0.8,0.2-1,0.3c-0.3,0.1-0.5,0.2-0.7,0.4c-0.2,0.1-0.3,0.3-0.3,0.5
			c-0.1,0.2-0.1,0.4-0.1,0.6c0,0.3,0.1,0.5,0.2,0.7c0.1,0.2,0.3,0.3,0.5,0.4c0.2,0.1,0.4,0.1,0.7,0.1c0.3,0,0.6-0.1,0.8-0.2
			c0.3-0.1,0.5-0.4,0.7-0.6c0.2-0.3,0.5-0.6,0.7-1.1l0,0.8c-0.2,0.4-0.4,0.7-0.7,1c-0.3,0.3-0.5,0.5-0.9,0.7
			c-0.3,0.2-0.7,0.2-1.1,0.2c-0.5,0-0.9-0.1-1.2-0.2c-0.3-0.2-0.6-0.4-0.8-0.7c-0.2-0.3-0.3-0.7-0.3-1.1c0-0.4,0.1-0.7,0.3-1
			c0.2-0.3,0.5-0.5,0.9-0.8c0.4-0.2,0.9-0.4,1.5-0.6C259.9,88.8,260.7,88.7,261.6,88.5z M261.6,93.2l-0.2-1.6l-0.1-0.1v-3.7
			c0-0.4,0-0.6-0.1-0.9c-0.1-0.2-0.3-0.4-0.5-0.5c-0.2-0.1-0.5-0.1-0.9-0.1c-0.6,0-1,0.1-1.4,0.2c-0.4,0.2-0.6,0.3-0.8,0.5
			c0-0.1,0-0.2,0.1-0.2c0-0.1,0.1-0.2,0.2-0.2c0.1-0.1,0.1-0.1,0.2-0.2c0.1,0,0.2-0.1,0.3-0.1v1.6h-1.2v-1.7
			c0.1-0.1,0.3-0.2,0.6-0.3c0.2-0.1,0.6-0.2,0.9-0.3c0.4-0.1,0.8-0.1,1.2-0.1c0.4,0,0.7,0,1.1,0.1c0.3,0.1,0.6,0.2,0.9,0.4
			c0.2,0.2,0.4,0.4,0.6,0.7c0.1,0.3,0.2,0.6,0.2,1v4.3c0,0.1,0,0.2,0.1,0.3c0.1,0.1,0.2,0.1,0.4,0.2c0.2,0,0.4,0.1,0.6,0.1l0.1,0
			v0.7H261.6z"/>
	</g>
</g>
</svg>
